<?xml version="1.0" encoding="UTF-8"?>
<svg id="Layer_1" xmlns="http://www.w3.org/2000/svg" version="1.1" viewBox="0 0 1129.61 709.48">
  <!-- Generator: Adobe Illustrator 29.5.0, SVG Export Plug-In . SVG Version: 2.1.0 Build 137)  -->
  <defs>
    <style>
      .st0 {
        stroke: #231f20;
        stroke-width: 5px;
      }
    </style>
  </defs>
  <path class="st0" d="M844.39,457.28c15.3-1.72,35.69-47.6,47.46-91.36,1.97-7.34-.38-15.27-5.93-20.31-.05-.04-.09-.08-.14-.12-2.67-2.43-5.71-4.4-9.06-5.61-3.36-1.21-5.42-1.09-7.5-.56-8.27,2.11-15.24,7.9-19.29,15.7-11.16,21.53-19.72,62.16-16.68,89.1,1.02,9.09,5.18,13.83,11.14,13.16Z"/>
  <path class="st0" d="M118.78,285.51c-2.64,1.82-5.28,4.95-6.54,9.14-1.44,4.79-.39,9.55,2.29,13.23,2.68,3.68,7.01,6.68,11.92,8.16,7.79,2.34,14.28-.54,16.48-7.85,1.15-3.83.48-7.69-1.12-11.05l-23.03-11.63Z"/>
  <path class="st0" d="M607.84,483.93c16.98-1.91,34.18-55.08,44.8-102.72-.71-8.46-7.95-15.52-16.09-15.19-.5.02-.99.06-1.48.11-9.09.96-16.98,6.82-21.35,15.15-11.29,21.53-20.06,62.6-17.03,89.49,1.02,9.09,5.18,13.83,11.14,13.16Z"/>
  <path class="st0" d="M164.24,218.98c6.57,3.64,13.76,1.76,17.64-5.24,2.43-4.38,2.56-8.74,1.17-12.95-1.39-4.2-5.3-8.52-9.78-11-6.57-3.64-13.76-1.76-17.64,5.24-2.43,4.38-2.55,8.74-1.16,12.95s5.29,8.52,9.78,11Z"/>
  <path class="st0" d="M1104.93,494.43c-3-7.86-9.03-14.18-16.75-17.54-5.07-2.21-10.59-3.01-15.99-2.4-2.68.3-5.34.95-7.89,1.95-1.97.65-12.19,3.58-52.17,9.79,2.58-18.49-4.49-36.23-7.14-42.02-3.98-8.71-8.17-15.05-13.19-19.96-5.02-4.9-10.76-8.22-17.09-9.88-3.55-48.67,5.08-113.46,22.71-168.43,5.02-15.64,14.35-44.75-1.9-64.59-4.97-6.07-16.29-15.91-36.28-13.66-7.97.9-15.71,3.56-23.19,6.13-5.95,2.05-12.69,4.37-17.36,4.89-.77.09-1.28.1-1.58.1-1.33-.02-2.65.05-3.95.19-13.58,1.53-24.81,11.82-27.27,25.57-3.04,16.97-5.93,35.13-8.73,54.85-8.5-1.83-17.11-2.37-25.37-1.43-33.17,3.74-62.99,30.83-81.8,74.34-4.65,10.75-8.48,22.22-11.51,34.09-5.86,15.9-11.87,29.14-17.56,39.88,2-16.16,5.08-36.57,9.56-61.57,2.58-14.42-1.24-29.16-10.5-40.44-9.07-11.05-22.39-17.55-36.55-17.83-2.36-.05-4.77-.18-7.32-.32-5.87-.33-11.95-.66-18.34.06-6.98.79-13.26,2.8-18.69,5.9-14.03-6.31-29.34-9.08-43.83-7.45-33.17,3.74-68.25,29.41-81.8,74.34l-31.6,79.76c1.41-19.92,4.64-42.14,9.24-61.71,3.83-16.29-2.26-33.33-15.52-43.42-1.55-1.18-3.33-2.47-5.26-3.81,8.9-5.81,16.38-13.84,21.56-23.55,8.57-16.05,20.85-40.62,28.54-68.54,13.47-48.95,9.04-97.01-12.48-135.34-27.59-49.15-82.36-78.09-136.28-72.01-.55.06-1.11.13-1.63.19-49.95,6.26-84.89,38.56-109.75,66-22.26,24.58-41.6,48.56-58.34,72.5-6.02-9.7-14.51-17.89-24.72-23.55-11.23-6.23-23.6-8.79-35.78-7.42-19.51,2.2-36.68,14.24-47.09,33.03-1.94,3.5-3.55,7.13-4.85,10.83-3.79-.63-7.67-.76-11.5-.32-14.79,1.67-27.65,11.25-33.55,24.99-1.39,3.23-2.32,6.57-2.89,9.95-6.81,3.97-11.94,10.38-14.23,18.02l-1.93,6.43c-5.94,19.75,1.97,40.73,18.91,51.75-.81,6.12-.67,12.23.27,18.2-5.22,4.88-8.69,11.42-9.66,18.62l-.95,7.01c-.85,6.3-.38,12.51,1.23,18.32-2.97,4.12-4.93,8.95-5.63,14.1l-1.12,8.26c-.44,3.26-.48,6.49-.21,9.65-5.13,1.45-9.88,4.19-13.74,8.1-7.39,7.48-10.52,18.17-8.34,28.46l1.87,8.81c.51,2.42,1.24,4.74,2.09,7-1.69,1.87-3.18,3.97-4.4,6.26-7.2,13.47-10.56,31.98-8.77,48.29,3.92,35.89,33.18,60.08,68.08,56.27l.21-.02c8.42-.95,15.92-3.56,22.46-7.81,7.34,6.19,16.52,9.94,26.32,10.57,1.87.12,3.72.07,5.54-.13,3.39-.38,6.66-1.33,9.7-2.74,7.53,20.27,17.6,38.84,30.21,55.63,18.76,24.96,47.47,41.43,73.08,54.25,35.08,17.56,82.45,16.14,119.81,12.94,48.01-4.11,233.53-21.91,407.75-41.54,124.63-14.04,215-25.8,268.6-34.94,21.56-3.68,40.25-16.85,51.27-36.15,11.45-20.06,13.27-44.04,4.98-65.78ZM553.08,397.56s0,0,0,0c12.16-44.59,36.94-78.57,65.68-81.81,17.58-1.98,37,7.04,48.77,20.53.08-2.01.45-4.05.82-6.1,2.49-16.88,16.56-12.77,34.48-12.43,10.76.21,18.84,10.46,16.87,21.47-7.71,43.03-15.04,93.59-12.62,115.11,1.43,12.65,6.14,19.73,12.4,19.02,21.09-2.38,48.45-41.74,68.84-97.43,11.62-47.04,37.18-83.47,66.99-86.83,16.68-1.88,35.42,6.42,47.06,18.72,3.76-30.85,8.41-64.61,14.33-97.71,31.73.43,71.9-39.08,50.93,26.29-20.9,65.16-29.03,138.6-23.11,191.18.74,6.59,3.2,17.56,10.89,18.95,3.93.71,7.81-2.72,11.26-1.92,1.13.26,2.23,1,3.27,2.02,2.91,2.85,5.36,7.87,6.6,10.59,3.53,7.72,6.82,20.94,3.45,29.25-2.9,7.16-13.74,10.33-20.94,11.14-31.28,3.52-52.96-14.85-60.68-51.22-18.51,36.52-42.1,62.8-62.66,65.11-20.84,2.35-41.81-15.99-49.78-41.55-19.97,32.22-41.87,51.88-62.24,54.17-31.28,3.52-55.73-15.34-63.3-47.72-18.1,34.87-40.97,59.47-60.93,61.72-20.89,2.35-41.69-15.59-49.85-40.75-19.74,31.7-41.55,51.05-61.58,53.31-33.37,3.76-58.89-16.59-62.72-50.59-2.45-21.74-2.22-43.79,1.04-73.79-22.56,27.37-41.87,75.58-54.13,135.42-26.1,1.34-44.97-8.15-45.08-22.55-.23-28.72,9.91-56.35,13.13-84.76,1.9-16.73,3.58-33.49,5.45-50.23,1.47-13.13,1.31-26.23,2.5-39.14,2.82-30.43-.67-61.85-15.26-88.75-3.45-6.35-7.47-12.69-8.27-19.88-1.17-10.53,5.41-21.13,14.87-25.89,9.47-4.76,21.17-4.02,30.63.75,9.46,4.76,16.77,13.2,21.43,22.71,3.64,7.41,8.03,14.64,10.58,22.44,3.15,9.61,4.06,10.63,5.25,17.6,2.76,16.25-.57,33.8-3.67,49.08-6.14,30.22-13.83,60.13-21.94,89.82l1.03,1.09c21.06-46.01,47.43-87.82,61.73-89.44,7.44-.84,20.1,4.87,32.02,13.94,3.43,2.61,5.02,7.11,4.01,11.38-8.92,37.95-12.92,83.46-9.81,111.06,1.38,12.26,6.14,19.73,12.1,19.06,23.54-2.65,50.07-36.93,70.14-102.45ZM141.71,186.32c9.04-16.31,25.35-21.72,40.34-13.41,8.65,4.79,14.92,12.85,17.33,21.91,2.42,9.07,1.39,18.66-3.58,27.63-9.04,16.31-25.35,21.72-40.34,13.41-8.65-4.79-14.92-12.85-17.33-21.91-2.42-9.06-1.39-18.66,3.58-27.63ZM118.34,236.23l4.51-10.51,52.69,34.6-7.5,17.48-46.35-30.43c-3.67-2.41-5.08-7.1-3.35-11.14ZM93.19,218.99c2.37-5.52,8.46-7.67,13.64-5.45,5.98,2.57,8.39,9.32,5.88,15.18-2.37,5.52-8.47,7.67-13.64,5.45-5.98-2.57-8.39-9.32-5.87-15.18ZM136.02,521.66c-8.75-.57-14.92-8.89-12.83-17.41,1.27-5.17,1.76-10.19,1.34-14.07-.82-7.46-5.56-11.73-11.91-11.04-3.36.37-5.42,2.23-7.37,7.48-1.96,5.12-4.03,16.17-8,22.4-3.98,6.23-8.68,9.26-15.65,10.02-18.04,1.97-31.54-9.9-33.58-28.56-1.07-9.83.98-22.14,5.27-30.16l6.88.46c5.35.36,9.11,5.61,7.48,10.72-2.14,6.72-2.88,13.29-2.41,17.61.77,7.09,4.98,11.04,10.58,10.43,3.61-.39,5.53-2.37,7.57-7.88,2.06-5.39,4.14-16.31,8.01-22.4,3.87-6.09,9.22-8.94,15.94-9.67,18.54-2.02,32.36,10.44,34.42,29.35,1.14,10.45-1.17,23.92-5.74,32.73ZM139.89,427.08s0,.08,0,.11c-.26,12.01-6.22,21.4-19.1,21.12-2.25-.05-4.75-.48-7.49-1.04l-21.44-4.21-.21,10.01-15.7-3.09.22-10.13-4.12-.8c-6.72-1.31-12.01-6.51-13.43-13.21l-1.87-8.81,19.82,3.93.34-16.14,15.7,3.09-.34,16.14,20.31,4.06c1.5.28,2.99.56,4.24.59,4.88.11,7.19-2.72,7.29-7.48.05-2.38-.52-5.14-1.47-7.29l7.77,1.58c5.5,1.12,9.57,5.95,9.47,11.57ZM144.12,366.41c-.37,2.69-3.07,4.41-5.66,3.6l-.16.23c3.33,5.25,5.06,12.05,4.11,18.99-1.51,11.16-9.22,17.69-20.87,16.1-2.23-.3-5.17-.95-7.96-1.84l-25.4-8.14c-5.88-1.89-9.57-7.72-8.74-13.84l1.12-8.26,33.04,10.55c2.78.88,4.36,1.35,5.85,1.55,4.83.66,7.31-1.79,8-6.87.57-4.22-.82-8.82-2.71-12.62l-30.01-9.57c-6.58-2.1-10.7-8.62-9.77-15.46l.95-7.01,60.01,19.26-1.81,13.32ZM122.53,334.73c-10.07-3.03-17.92-9.05-22.66-16.75-4.74-7.7-6.28-16.92-3.32-26.75,1.62-5.39,4.38-9.79,7.81-12.94l-21.58-10.91c-6.35-3.21-9.48-10.51-7.43-17.33l1.94-6.44,86.68,43.73-4.06,13.47c-.63,2.09-3,3.1-4.95,2.11l-.19.2c2.31,4.48,2.87,10.01,1.03,16.12-4.11,13.66-18.18,20.01-33.27,15.47ZM1043.43,565.52c-59.72,10.19-160.56,22.72-266.84,34.69-170.98,19.27-356.07,37.1-406.92,41.46-33.26,2.85-75.04,4.31-103.13-9.75-22.36-11.19-47.21-25.29-62.08-45.07-31.2-41.53-44.51-96.56-39.56-163.58,8.72-118.1,48.87-206.66,138.57-305.68,21.23-23.44,50.7-50.98,90.45-55.97,41.39-5.23,85.28,17.88,106.74,56.09,17.46,31.09,20.87,70.77,9.6,111.72-6.09,22.14-15.53,42.55-25.97,62.1-8.99,16.83-29.68,22.35-45.62,12.3l-14.35-9.04c14.92-25.98,30.35-52.84,37.87-80.16,4.32-15.71,9.47-45.82-4.62-70.91-9.78-17.42-32.58-33.37-57.22-30.35-23.97,3-44.86,23.06-60.38,40.19-81.18,89.61-117.45,169.05-125.22,274.2-3.96,53.56,5.79,96.36,28.96,127.2,9.57,12.73,35.57,25.75,44.12,30.02,12.87,6.44,38.87,8.04,77.28,4.75,64.88-5.56,229.14-21.54,391.19-39.67,268.75-30.13,312.42-41.65,319.4-44.48h0c10.04,26.31-5.59,55.39-32.27,59.94Z"/>
</svg>